<mxfile host="app.diagrams.net" agent="Mozilla/5.0 (Windows NT 10.0; Win64; x64; rv:139.0) Gecko/20100101 Firefox/139.0" version="27.1.6">
  <diagram name="Page-1" id="VAMlcWt9ZfQsrERwl7G1">
    <mxGraphModel dx="1617" dy="937" grid="1" gridSize="10" guides="1" tooltips="1" connect="1" arrows="1" fold="1" page="1" pageScale="1" pageWidth="827" pageHeight="1169" math="0" shadow="0">
      <root>
        <mxCell id="0" />
        <mxCell id="1" parent="0" />
        <mxCell id="uKV6401G0jy6ZUsrKqNN-36" style="edgeStyle=orthogonalEdgeStyle;rounded=0;orthogonalLoop=1;jettySize=auto;html=1;" parent="1" source="uKV6401G0jy6ZUsrKqNN-37" target="uKV6401G0jy6ZUsrKqNN-40" edge="1">
          <mxGeometry relative="1" as="geometry">
            <Array as="points">
              <mxPoint x="240" y="410" />
            </Array>
          </mxGeometry>
        </mxCell>
        <object label="Main Start" odk_type="start" form_id="questionaire" name="s_" id="uKV6401G0jy6ZUsrKqNN-37">
          <mxCell style="ellipse;whiteSpace=wrap;html=1;aspect=fixed;fontColor=default;" parent="1" vertex="1">
            <mxGeometry x="200" y="280" width="70" height="70" as="geometry" />
          </mxCell>
        </object>
        <mxCell id="uKV6401G0jy6ZUsrKqNN-38" style="edgeStyle=orthogonalEdgeStyle;rounded=0;orthogonalLoop=1;jettySize=auto;html=1;" parent="1" source="uKV6401G0jy6ZUsrKqNN-40" target="uKV6401G0jy6ZUsrKqNN-42" edge="1">
          <mxGeometry relative="1" as="geometry" />
        </mxCell>
        <mxCell id="uKV6401G0jy6ZUsrKqNN-74" style="edgeStyle=orthogonalEdgeStyle;rounded=0;orthogonalLoop=1;jettySize=auto;html=1;" parent="1" source="uKV6401G0jy6ZUsrKqNN-40" target="uKV6401G0jy6ZUsrKqNN-73" edge="1">
          <mxGeometry relative="1" as="geometry" />
        </mxCell>
        <object label="&lt;div&gt;Date of Birth&lt;/div&gt;" odk_type="date" name="date_of_birth" id="uKV6401G0jy6ZUsrKqNN-40">
          <mxCell style="shape=mxgraph.bpmn.task2;whiteSpace=wrap;html=1;fixedSize=1;points=[[0.25,0,0],[0.5,0,0],[0.75,0,0],[1,0.25,0],[1,0.5,0],[1,0.75,0],[0.75,1,0],[0.5,1,0],[0.25,1,0],[0,0.75,0],[0,0.5,0],[0,0.25,0]];rectStyle=rounded;size=10;container=1;expand=0;collapsible=0;taskMarker=user;fillColor=none;" parent="1" vertex="1">
            <mxGeometry x="300" y="380" width="100" height="60" as="geometry" />
          </mxCell>
        </object>
        <mxCell id="uKV6401G0jy6ZUsrKqNN-41" style="edgeStyle=orthogonalEdgeStyle;rounded=0;orthogonalLoop=1;jettySize=auto;html=1;" parent="1" source="uKV6401G0jy6ZUsrKqNN-42" target="uKV6401G0jy6ZUsrKqNN-44" edge="1">
          <mxGeometry relative="1" as="geometry" />
        </mxCell>
        <object label="&lt;div&gt;Under 5 Number&lt;/div&gt;" odk_type="text" name="t_" id="uKV6401G0jy6ZUsrKqNN-42">
          <mxCell style="shape=mxgraph.bpmn.task2;whiteSpace=wrap;html=1;fixedSize=1;points=[[0.25,0,0],[0.5,0,0],[0.75,0,0],[1,0.25,0],[1,0.5,0],[1,0.75,0],[0.75,1,0],[0.5,1,0],[0.25,1,0],[0,0.75,0],[0,0.5,0],[0,0.25,0]];rectStyle=rounded;size=10;container=1;expand=0;collapsible=0;taskMarker=user;fillColor=none;strokeColor=#9673a6;" parent="1" vertex="1">
            <mxGeometry x="295" y="480" width="110" height="60" as="geometry" />
          </mxCell>
        </object>
        <mxCell id="uKV6401G0jy6ZUsrKqNN-43" style="edgeStyle=orthogonalEdgeStyle;rounded=0;orthogonalLoop=1;jettySize=auto;html=1;" parent="1" source="uKV6401G0jy6ZUsrKqNN-44" target="uKV6401G0jy6ZUsrKqNN-47" edge="1">
          <mxGeometry relative="1" as="geometry" />
        </mxCell>
        <object label="&lt;div&gt;Registration Date&lt;/div&gt;" odk_type="date" name="d_" id="uKV6401G0jy6ZUsrKqNN-44">
          <mxCell style="shape=mxgraph.bpmn.task2;whiteSpace=wrap;html=1;fixedSize=1;points=[[0.25,0,0],[0.5,0,0],[0.75,0,0],[1,0.25,0],[1,0.5,0],[1,0.75,0],[0.75,1,0],[0.5,1,0],[0.25,1,0],[0,0.75,0],[0,0.5,0],[0,0.25,0]];rectStyle=rounded;size=10;container=1;expand=0;collapsible=0;taskMarker=user;fillColor=none;" parent="1" vertex="1">
            <mxGeometry x="300" y="570" width="100" height="60" as="geometry" />
          </mxCell>
        </object>
        <mxCell id="uKV6401G0jy6ZUsrKqNN-45" value="Yes" style="edgeStyle=orthogonalEdgeStyle;rounded=0;orthogonalLoop=1;jettySize=auto;html=1;strokeColor=#000000;fillColor=#F8CECC;" parent="1" source="uKV6401G0jy6ZUsrKqNN-47" target="uKV6401G0jy6ZUsrKqNN-49" edge="1">
          <mxGeometry relative="1" as="geometry">
            <mxPoint x="500" y="680" as="targetPoint" />
            <Array as="points">
              <mxPoint x="560" y="680" />
              <mxPoint x="560" y="680" />
            </Array>
          </mxGeometry>
        </mxCell>
        <mxCell id="uKV6401G0jy6ZUsrKqNN-46" value="No" style="edgeStyle=orthogonalEdgeStyle;rounded=0;orthogonalLoop=1;jettySize=auto;html=1;strokeColor=#000000;fillColor=#F8CECC;" parent="1" source="uKV6401G0jy6ZUsrKqNN-47" target="uKV6401G0jy6ZUsrKqNN-48" edge="1">
          <mxGeometry x="-0.022" relative="1" as="geometry">
            <mxPoint x="360" y="730" as="targetPoint" />
            <Array as="points">
              <mxPoint x="360" y="730" />
              <mxPoint x="255" y="730" />
            </Array>
            <mxPoint as="offset" />
          </mxGeometry>
        </mxCell>
        <UserObject label="Bukahana available?" name="ask_" odk_type="select_one yesno" id="uKV6401G0jy6ZUsrKqNN-47">
          <mxCell style="html=1;whiteSpace=wrap;fillColor=none;rounded=0;strokeColor=default;align=left;points=[[0.25,0,0],[0.5,0,0],[0.75,0,0],[1,0.25,0],[1,0.5,0],[1,0.75,0],[0.75,1,0],[0.5,1,0],[0.25,1,0],[0,0.75,0],[0,0.5,0],[0,0.25,0]];shape=mxgraph.bpmn.task2;rectStyle=rounded;size=10;container=1;expand=0;collapsible=0;taskMarker=abstract;" parent="1" vertex="1">
            <mxGeometry x="290" y="660" width="120" height="40" as="geometry" />
          </mxCell>
        </UserObject>
        <object label="Activity end" name="next_" odk_type="activity_end" id="uKV6401G0jy6ZUsrKqNN-48">
          <mxCell style="points=[[0.145,0.145,0],[0.5,0,0],[0.855,0.145,0],[1,0.5,0],[0.855,0.855,0],[0.5,1,0],[0.145,0.855,0],[0,0.5,0]];shape=mxgraph.bpmn.event;html=1;verticalLabelPosition=bottom;labelBackgroundColor=#ffffff;verticalAlign=top;align=center;perimeter=ellipsePerimeter;outlineConnect=0;aspect=fixed;outline=end;symbol=terminate2;strokeColor=default;" parent="1" vertex="1">
            <mxGeometry x="230" y="1200" width="50" height="50" as="geometry" />
          </mxCell>
        </object>
        <UserObject label="Was the BCG vaccine administered" name="select_" odk_type="select_one" filter="" id="uKV6401G0jy6ZUsrKqNN-49">
          <mxCell style="swimlane;fontStyle=0;childLayout=stackLayout;horizontal=1;startSize=30;horizontalStack=0;resizeParent=1;resizeParentMax=0;resizeLast=0;collapsible=0;marginBottom=0;fontColor=#000000;rounded=1;fillColor=none;strokeColor=default;align=left;" parent="1" vertex="1">
            <mxGeometry x="610" y="640" width="225" height="120" as="geometry" />
          </mxCell>
        </UserObject>
        <UserObject label="Yes" name="opt_1" odk_type="select_option" id="uKV6401G0jy6ZUsrKqNN-50">
          <mxCell style="text;strokeColor=default;fillColor=none;align=left;verticalAlign=middle;spacingLeft=4;spacingRight=4;overflow=hidden;points=[[0,0.5],[1,0.5]];portConstraint=eastwest;rotatable=0;fontColor=#000000;rounded=0;dashed=1;" parent="uKV6401G0jy6ZUsrKqNN-49" vertex="1">
            <mxGeometry y="30" width="225" height="30" as="geometry" />
          </mxCell>
        </UserObject>
        <UserObject label="No" name="opt_2" odk_type="select_option" id="uKV6401G0jy6ZUsrKqNN-51">
          <mxCell style="text;strokeColor=default;fillColor=none;align=left;verticalAlign=middle;spacingLeft=4;spacingRight=4;overflow=hidden;points=[[0,0.5],[1,0.5]];portConstraint=eastwest;rotatable=0;fontColor=#000000;rounded=0;dashed=1;" parent="uKV6401G0jy6ZUsrKqNN-49" vertex="1">
            <mxGeometry y="60" width="225" height="30" as="geometry" />
          </mxCell>
        </UserObject>
        <UserObject label="Unknown" name="opt_3" odk_type="select_option" id="uKV6401G0jy6ZUsrKqNN-52">
          <mxCell style="text;strokeColor=default;fillColor=none;align=left;verticalAlign=middle;spacingLeft=4;spacingRight=4;overflow=hidden;points=[[0,0.5],[1,0.5]];portConstraint=eastwest;rotatable=0;fontColor=#000000;rounded=0;dashed=1;" parent="uKV6401G0jy6ZUsrKqNN-49" vertex="1">
            <mxGeometry y="90" width="225" height="30" as="geometry" />
          </mxCell>
        </UserObject>
        <UserObject label="Was the HepB birth dose administered" name="select_" odk_type="select_one" filter="" id="uKV6401G0jy6ZUsrKqNN-53">
          <mxCell style="swimlane;fontStyle=0;childLayout=stackLayout;horizontal=1;startSize=30;horizontalStack=0;resizeParent=1;resizeParentMax=0;resizeLast=0;collapsible=0;marginBottom=0;fontColor=#000000;rounded=1;fillColor=none;strokeColor=default;align=left;" parent="1" vertex="1">
            <mxGeometry x="610" y="1020" width="225" height="120" as="geometry" />
          </mxCell>
        </UserObject>
        <UserObject label="Yes" name="opt_1" odk_type="select_option" id="uKV6401G0jy6ZUsrKqNN-54">
          <mxCell style="text;strokeColor=default;fillColor=none;align=left;verticalAlign=middle;spacingLeft=4;spacingRight=4;overflow=hidden;points=[[0,0.5],[1,0.5]];portConstraint=eastwest;rotatable=0;fontColor=#000000;rounded=0;dashed=1;" parent="uKV6401G0jy6ZUsrKqNN-53" vertex="1">
            <mxGeometry y="30" width="225" height="30" as="geometry" />
          </mxCell>
        </UserObject>
        <UserObject label="No" name="opt_2" odk_type="select_option" id="uKV6401G0jy6ZUsrKqNN-55">
          <mxCell style="text;strokeColor=default;fillColor=none;align=left;verticalAlign=middle;spacingLeft=4;spacingRight=4;overflow=hidden;points=[[0,0.5],[1,0.5]];portConstraint=eastwest;rotatable=0;fontColor=#000000;rounded=0;dashed=1;" parent="uKV6401G0jy6ZUsrKqNN-53" vertex="1">
            <mxGeometry y="60" width="225" height="30" as="geometry" />
          </mxCell>
        </UserObject>
        <UserObject label="Unknown" name="opt_3" odk_type="select_option" id="uKV6401G0jy6ZUsrKqNN-56">
          <mxCell style="text;strokeColor=default;fillColor=none;align=left;verticalAlign=middle;spacingLeft=4;spacingRight=4;overflow=hidden;points=[[0,0.5],[1,0.5]];portConstraint=eastwest;rotatable=0;fontColor=#000000;rounded=0;dashed=1;" parent="uKV6401G0jy6ZUsrKqNN-53" vertex="1">
            <mxGeometry y="90" width="225" height="30" as="geometry" />
          </mxCell>
        </UserObject>
        <object label="&lt;div&gt;BCG vaccination date&lt;/div&gt;" odk_type="date" name="d_" constraint="${date_of_birth} &lt;= .  and . &lt;= today()" constraint_message="date cannot be in the future" id="uKV6401G0jy6ZUsrKqNN-57">
          <mxCell style="shape=mxgraph.bpmn.task2;whiteSpace=wrap;html=1;fixedSize=1;points=[[0.25,0,0],[0.5,0,0],[0.75,0,0],[1,0.25,0],[1,0.5,0],[1,0.75,0],[0.75,1,0],[0.5,1,0],[0.25,1,0],[0,0.75,0],[0,0.5,0],[0,0.25,0]];rectStyle=rounded;size=10;container=1;expand=0;collapsible=0;taskMarker=user;fillColor=none;" parent="1" vertex="1">
            <mxGeometry x="1241" y="655" width="100" height="60" as="geometry" />
          </mxCell>
        </object>
        <mxCell id="uKV6401G0jy6ZUsrKqNN-58" style="edgeStyle=orthogonalEdgeStyle;rounded=0;orthogonalLoop=1;jettySize=auto;html=1;" parent="1" source="uKV6401G0jy6ZUsrKqNN-50" target="uKV6401G0jy6ZUsrKqNN-57" edge="1">
          <mxGeometry relative="1" as="geometry" />
        </mxCell>
        <object label="HepB vaccination date" odk_type="date" name="d_" id="uKV6401G0jy6ZUsrKqNN-59">
          <mxCell style="shape=mxgraph.bpmn.task2;whiteSpace=wrap;html=1;fixedSize=1;points=[[0.25,0,0],[0.5,0,0],[0.75,0,0],[1,0.25,0],[1,0.5,0],[1,0.75,0],[0.75,1,0],[0.5,1,0],[0.25,1,0],[0,0.75,0],[0,0.5,0],[0,0.25,0]];rectStyle=rounded;size=10;container=1;expand=0;collapsible=0;taskMarker=user;fillColor=none;" parent="1" vertex="1">
            <mxGeometry x="1030" y="1035" width="100" height="60" as="geometry" />
          </mxCell>
        </object>
        <mxCell id="uKV6401G0jy6ZUsrKqNN-60" style="edgeStyle=orthogonalEdgeStyle;rounded=0;orthogonalLoop=1;jettySize=auto;html=1;" parent="1" source="uKV6401G0jy6ZUsrKqNN-54" target="uKV6401G0jy6ZUsrKqNN-59" edge="1">
          <mxGeometry relative="1" as="geometry" />
        </mxCell>
        <mxCell id="uKV6401G0jy6ZUsrKqNN-61" value="Yes" style="edgeStyle=orthogonalEdgeStyle;rounded=0;orthogonalLoop=1;jettySize=auto;html=1;strokeColor=#000000;fillColor=#F8CECC;" parent="1" source="uKV6401G0jy6ZUsrKqNN-47" target="uKV6401G0jy6ZUsrKqNN-53" edge="1">
          <mxGeometry relative="1" as="geometry">
            <mxPoint x="740" y="960" as="targetPoint" />
            <mxPoint x="500" y="1010" as="sourcePoint" />
            <Array as="points">
              <mxPoint x="500" y="680" />
              <mxPoint x="500" y="1080" />
            </Array>
          </mxGeometry>
        </mxCell>
        <mxCell id="uKV6401G0jy6ZUsrKqNN-78" style="edgeStyle=orthogonalEdgeStyle;rounded=0;orthogonalLoop=1;jettySize=auto;html=1;" parent="1" source="uKV6401G0jy6ZUsrKqNN-65" target="uKV6401G0jy6ZUsrKqNN-77" edge="1">
          <mxGeometry relative="1" as="geometry" />
        </mxCell>
        <object label="Bridge" odk_type="bridge" id="uKV6401G0jy6ZUsrKqNN-65">
          <mxCell style="shape=mxgraph.bpmn.event;whiteSpace=wrap;html=1;backgroundOutline=1;points=[[0.145,0.145,0],[0.5,0,0],[0.855,0.145,0],[1,0.5,0],[0.855,0.855,0],[0.5,1,0],[0.145,0.855,0],[0,0.5,0]];verticalLabelPosition=bottom;labelBackgroundColor=#ffffff;verticalAlign=top;perimeter=ellipsePerimeter;outlineConnect=0;aspect=fixed;outline=eventInt;symbol=parallelMultiple;" parent="1" vertex="1">
            <mxGeometry x="900" y="715" width="30" height="31" as="geometry" />
          </mxCell>
        </object>
        <mxCell id="uKV6401G0jy6ZUsrKqNN-71" style="edgeStyle=orthogonalEdgeStyle;rounded=0;orthogonalLoop=1;jettySize=auto;html=1;" parent="1" source="uKV6401G0jy6ZUsrKqNN-52" target="uKV6401G0jy6ZUsrKqNN-65" edge="1">
          <mxGeometry relative="1" as="geometry" />
        </mxCell>
        <mxCell id="uKV6401G0jy6ZUsrKqNN-72" style="edgeStyle=orthogonalEdgeStyle;rounded=0;orthogonalLoop=1;jettySize=auto;html=1;" parent="1" source="uKV6401G0jy6ZUsrKqNN-51" target="uKV6401G0jy6ZUsrKqNN-65" edge="1">
          <mxGeometry relative="1" as="geometry" />
        </mxCell>
        <mxCell id="uKV6401G0jy6ZUsrKqNN-79" style="edgeStyle=orthogonalEdgeStyle;rounded=0;orthogonalLoop=1;jettySize=auto;html=1;" parent="1" source="uKV6401G0jy6ZUsrKqNN-73" target="uKV6401G0jy6ZUsrKqNN-77" edge="1">
          <mxGeometry relative="1" as="geometry" />
        </mxCell>
        <object label="&lt;div&gt;d_since_b&lt;/div&gt;" odk_type="calculate" name="d_" id="uKV6401G0jy6ZUsrKqNN-73">
          <mxCell style="rounded=1;whiteSpace=wrap;html=1;fillColor=none;strokeColor=default;points=[[0.25,0,0],[0.5,0,0],[0.75,0,0],[1,0.25,0],[1,0.5,0],[1,0.75,0],[0.75,1,0],[0.5,1,0],[0.25,1,0],[0,0.75,0],[0,0.5,0],[0,0.25,0]];shape=mxgraph.bpmn.task2;rectStyle=rounded;size=10;container=1;expand=0;collapsible=0;taskMarker=script;" parent="1" vertex="1">
            <mxGeometry x="530" y="380" width="100" height="60" as="geometry" />
          </mxCell>
        </object>
        <mxCell id="uKV6401G0jy6ZUsrKqNN-75" value="Yes" style="edgeStyle=orthogonalEdgeStyle;rounded=0;orthogonalLoop=1;jettySize=auto;html=1;strokeColor=#F19C99;fillColor=#F8CECC;" parent="1" source="uKV6401G0jy6ZUsrKqNN-77" target="uKV6401G0jy6ZUsrKqNN-80" edge="1">
          <mxGeometry relative="1" as="geometry">
            <mxPoint x="1130" y="810" as="targetPoint" />
          </mxGeometry>
        </mxCell>
        <mxCell id="uKV6401G0jy6ZUsrKqNN-76" value="No" style="edgeStyle=orthogonalEdgeStyle;rounded=0;orthogonalLoop=1;jettySize=auto;html=1;strokeColor=#F19C99;fillColor=#F8CECC;" parent="1" source="uKV6401G0jy6ZUsrKqNN-77" edge="1" target="uKV6401G0jy6ZUsrKqNN-48">
          <mxGeometry relative="1" as="geometry">
            <mxPoint x="960" y="810" as="targetPoint" />
          </mxGeometry>
        </mxCell>
        <UserObject label="1 = 1" name="r_" odk_type="rhombus" reference="" id="uKV6401G0jy6ZUsrKqNN-77">
          <mxCell style="whiteSpace=wrap;html=1;rounded=0;strokeColor=default;fillColor=none;points=[[0.25,0,0],[0.5,0,0],[0.75,0,0],[1,0.25,0],[1,0.5,0],[1,0.75,0],[0.75,1,0],[0.5,1,0],[0.25,1,0],[0,0.75,0],[0,0.5,0],[0,0.25,0]];shape=mxgraph.bpmn.task2;rectStyle=rounded;size=10;container=1;expand=0;collapsible=0;taskMarker=businessRule;" parent="1" vertex="1">
            <mxGeometry x="1010" y="770" width="200" height="80" as="geometry" />
          </mxCell>
        </UserObject>
        <object label="&lt;br&gt;&lt;br&gt;&lt;table width=&quot;377&quot; cellspacing=&quot;0&quot; cellpadding=&quot;0&quot; border=&quot;0&quot;&gt;&lt;colgroup&gt;&lt;col width=&quot;377&quot;&gt;&lt;/colgroup&gt;&lt;tbody&gt;&lt;tr height=&quot;20&quot;&gt;  &lt;td style=&quot;height:15.0pt;width:283pt&quot; width=&quot;377&quot; class=&quot;xl91&quot; height=&quot;20&quot;&gt;Remind the parents that vaccinations are very important. The&amp;nbsp; BCG vaccine helps to prevent Tuberculosis and should be administered within the first 11 months after birth.&amp;nbsp;&lt;/td&gt;&lt;/tr&gt;&lt;/tbody&gt;&lt;/table&gt;" odk_type="note" name="label_" id="uKV6401G0jy6ZUsrKqNN-80">
          <mxCell style="rounded=0;whiteSpace=wrap;html=1;align=left;fillColor=none;fontSize=12;strokeColor=default;points=[[0.25,0,0],[0.5,0,0],[0.75,0,0],[1,0.25,0],[1,0.5,0],[1,0.75,0],[0.75,1,0],[0.5,1,0],[0.25,1,0],[0,0.75,0],[0,0.5,0],[0,0.25,0]];shape=mxgraph.bpmn.task2;rectStyle=rounded;size=10;container=1;expand=0;collapsible=0;taskMarker=send;" parent="1" vertex="1">
            <mxGeometry x="1290" y="770" width="370" height="80" as="geometry" />
          </mxCell>
        </object>
        <mxCell id="eObNLl0OWFTAh-jxPU2k-9" style="edgeStyle=orthogonalEdgeStyle;rounded=0;orthogonalLoop=1;jettySize=auto;html=1;" edge="1" parent="1" source="eObNLl0OWFTAh-jxPU2k-6" target="uKV6401G0jy6ZUsrKqNN-77">
          <mxGeometry relative="1" as="geometry" />
        </mxCell>
        <mxCell id="eObNLl0OWFTAh-jxPU2k-13" style="edgeStyle=orthogonalEdgeStyle;rounded=0;orthogonalLoop=1;jettySize=auto;html=1;" edge="1" parent="1" source="eObNLl0OWFTAh-jxPU2k-6" target="eObNLl0OWFTAh-jxPU2k-12">
          <mxGeometry relative="1" as="geometry" />
        </mxCell>
        <object label="&lt;div&gt;t_vac_bcg&lt;/div&gt;" odk_type="text" name="t_" id="eObNLl0OWFTAh-jxPU2k-6">
          <mxCell style="shape=mxgraph.bpmn.task2;whiteSpace=wrap;html=1;fixedSize=1;points=[[0.25,0,0],[0.5,0,0],[0.75,0,0],[1,0.25,0],[1,0.5,0],[1,0.75,0],[0.75,1,0],[0.5,1,0],[0.25,1,0],[0,0.75,0],[0,0.5,0],[0,0.25,0]];rectStyle=rounded;size=10;container=1;expand=0;collapsible=0;taskMarker=user;fillColor=none;strokeColor=#9673a6;" vertex="1" parent="1">
            <mxGeometry x="663" y="450" width="110" height="60" as="geometry" />
          </mxCell>
        </object>
        <mxCell id="eObNLl0OWFTAh-jxPU2k-10" value="Yes" style="edgeStyle=orthogonalEdgeStyle;rounded=0;orthogonalLoop=1;jettySize=auto;html=1;strokeColor=#F19C99;fillColor=#F8CECC;" edge="1" source="eObNLl0OWFTAh-jxPU2k-12" parent="1" target="uKV6401G0jy6ZUsrKqNN-49">
          <mxGeometry relative="1" as="geometry">
            <mxPoint x="808" y="580" as="targetPoint" />
          </mxGeometry>
        </mxCell>
        <mxCell id="eObNLl0OWFTAh-jxPU2k-11" value="No" style="edgeStyle=orthogonalEdgeStyle;rounded=0;orthogonalLoop=1;jettySize=auto;html=1;strokeColor=#F19C99;fillColor=#F8CECC;" edge="1" source="eObNLl0OWFTAh-jxPU2k-12" parent="1" target="uKV6401G0jy6ZUsrKqNN-48">
          <mxGeometry relative="1" as="geometry">
            <mxPoint x="638" y="580" as="targetPoint" />
          </mxGeometry>
        </mxCell>
        <UserObject label="1 = 1" name="r_" odk_type="rhombus" reference="" id="eObNLl0OWFTAh-jxPU2k-12">
          <mxCell style="whiteSpace=wrap;html=1;rounded=0;strokeColor=default;fillColor=none;points=[[0.25,0,0],[0.5,0,0],[0.75,0,0],[1,0.25,0],[1,0.5,0],[1,0.75,0],[0.75,1,0],[0.5,1,0],[0.25,1,0],[0,0.75,0],[0,0.5,0],[0,0.25,0]];shape=mxgraph.bpmn.task2;rectStyle=rounded;size=10;container=1;expand=0;collapsible=0;taskMarker=businessRule;" vertex="1" parent="1">
            <mxGeometry x="678" y="531" width="80" height="80" as="geometry" />
          </mxCell>
        </UserObject>
      </root>
    </mxGraphModel>
  </diagram>
</mxfile>
